<?xml version="1.0" encoding="utf-8"?>
<!-- Generator: Adobe Illustrator 24.3.0, SVG Export Plug-In . SVG Version: 6.00 Build 0)  -->
<svg version="1.1" id="Layer_1" xmlns="http://www.w3.org/2000/svg" xmlns:xlink="http://www.w3.org/1999/xlink" x="0px" y="0px"
	 viewBox="0 0 1080 1080" style="enable-background:new 0 0 1080 1080;" xml:space="preserve">
<style type="text/css">
	.st0{fill:#737373;}
</style>
<path d="M255.3,444.1c5.2-20.7,11.6-50.7,20.4-79.9c10.6-35.2,56.2-57.9,95.5-50.6c13.8,2.6,28.1,3,41.9,5.8
	c44.1,8.7,73,36.5,85.8,77.9c7.9,25.4,12.6,51.9,5.1,80.6c-10.3,39.4-38.3,61-68.7,81.4c-20.3,13.6-44,20.4-68.1,20.8
	c-11.4,0.2-22.9-7.6-34.4-11.2C282.2,553.3,260.1,500.4,255.3,444.1z"/>
<path d="M557.8,729.9c0.1-2.5,0.2-4.9,0.4-7.3c1.9-21.4,12.3-40.4,20.4-60c6.9-16.8,18.1-31.2,33.8-40.6
	c32.9-19.9,75-13.7,107.3,4.3c67.8,37.8,84.6,151.8,50.1,200.9c-16.7,23.7-39.7,42.9-70.2,48.6c-14.4,2.7-30.9-1.4-45.7-4.8
	c-28.6-6.6-55.3-19.1-69.4-45.8C569.4,796.9,557,762.6,557.8,729.9z"/>
<path d="M28.6,624.1c23.8-2.4,45.1-4.6,66.5-6.7c4.1-0.4,8.4,0.2,12.4-0.7c61.3-14.6,117,35.6,114.6,104
	c-0.6,18.5-5.7,35.3-20.5,47.2c-11.3,9.1-22.6,18.2-32.7,28.6c-4.3,4.4-7.5,11.8-8.1,18.1c-2.3,21.4-3.2,42.9-4.7,66.1
	c-9,0-17.8-0.2-26.6,0c-14.7,0.4-29.5,2.8-44,1.4c-17.7-1.7-35.1-6.3-54-9.9c-1.5-14.3-4.2-27.5-4.2-40.8
	C27.3,762.6,28.1,693.7,28.6,624.1z"/>
<path d="M395.3,891.9c-60.2,2.8-96.2-23.7-118.5-89.1c-2.9-8.4-5.6-17-7.5-25.7c-7.5-33.3-7.7-64.8,15.8-91.8
	c9.9-11.4,17-26,26.8-37.4c31.4-36.5,85.9-34.6,115.1-21.9c9.4,4.1,18.1,13,24.8,21.9c13.3,17.5,24.7,36.8,37.3,55
	c25.6,36.8,30.7,77.4,12.4,118.7c-17.1,38.6-45.2,64-85.1,68.5C408.6,891,400.5,891.5,395.3,891.9z"/>
<path d="M177.1,317.2c2.6,8.5,6.1,16.9,7.8,25.6c10,52.4,19.4,105,29.4,157.4c3.6,18.8,8.8,37.4,12.9,56.2
	c3.7,16.9-0.6,24.1-19.7,25.8c-19.3,1.8-39,0.9-58.5-0.1c-38.9-2-77.8-4.9-117.1-7.5c-10.9-10-12.6-21.6-9.8-35.8
	c6-31,10.5-62.4,14-93.8c2.8-25.6,2.5-51.4,5-77c1.6-16.1,4.7-32.3,16.4-51.9c17.5,41.4,33,77.9,50,118.2
	c32.8-38.1,34.2-84.1,60.5-119C171.2,316,174.2,316.6,177.1,317.2z"/>
<path d="M998.7,697.6c-0.1,24.7-0.2,49.4-0.3,74c-0.1,23.4-4.3,52.1,1.3,74.6c3.7,14.9,7.1,18,21.7,18.6c8.1,0.3,16.2-2.5,24.3-2.3
	c4.4,0.1,8.7,3.6,13,5.5c-0.4,1.9-0.8,3.7-1.2,5.6c-5.2,0.8-10.4,2.6-15.5,2.3c-50.7-2.9-101.1-1.1-151.5,5.5
	c-11,1.4-22.5-0.2-32.5-0.5c0-24.2,0.8-44.8-0.2-65.2c-2.6-56.1-6-112.1-8.9-168.1c-0.2-3.3,1-6.7,2.1-13c24.8-5.1,49.7-11,74.8-15
	c18.9-3.1,39.1-5.4,58.3-5.4c18.6,0,14.7,16.1,14.6,31.5C998.8,662.9,998.7,680.3,998.7,697.6z"/>
<path d="M548.8,447.2c2.1-50.6,26.2-82.1,54.3-108.2c27.5-25.6,61.4-33.9,94.8-29.9c36,4.4,65.4,26.8,82.1,69.4
	c15,38.2,24.2,76.4,8.1,118.3c-20,52.1-63.2,82.3-109,79.7c-4.9-0.3-10-3.3-14.7-2.6c-21.7,3.3-39.7-8.4-58.9-18.4
	C564.7,534.4,553.6,492.9,548.8,447.2z"/>
<path d="M875.6,565.8c-5.8,3.6-13.1,8.2-22.9,14.3c-9.3-24.6,2.1-46.9,0.5-69c-1.6-22,0-44.2,0.4-66.4c0.4-23.1,0.8-46.3,1.9-69.4
	c1-21.6-0.4-43.7,16.6-69.6c20.3,38.9,36.1,73.9,56.3,106.8c20.5,33.4,45.3,64.9,71.8,96.7c6.7-61.5-3.1-123.3,7.1-183.9
	c2.7-0.1,5.4-0.2,8.1-0.4c1.4,5.1,4.3,10.2,3.9,15.2c-5.9,71.5-9.1,142.7,11.4,213.1c4.1,14.2-2.4,21.3-19.2,21.7
	c-35.6,0.9-71.4,1.3-107,0.5C895.2,575.1,886.2,569.5,875.6,565.8z"/>
<path class="st0" d="M364.6,562.2c4.8,1,9.5,1.7,13.9,2c0.9-66.4-0.1-132.8-3.1-199.1c-0.4-9.9-1.2-20.5-7.4-28.1
	c-18.7-23-69.6,24.5-78.2,41.8c-25.6,51.7-14.5,99.7,14.2,146C315.6,543.7,341.8,557.3,364.6,562.2z"/>
<path class="st0" d="M623,344.5c-41.4,20.8-67.4,69.7-62.3,111.8c5.2,42.4,23.9,71.7,47.2,73.8C596.1,427.5,598.3,397.5,623,344.5z"
	/>
<path class="st0" d="M718,848.8c6.3-3.9,12.4-8.5,18.5-13.4c23.7-18.6,37.9-41.4,37.2-70.6c-0.7-28.3-6.3-57.6-24.9-81.1
	c-22.9-29.1-49.9-50.3-87.5-50.9c-8.7-0.1-17.6,0.1-25.7,3.3c-20,7.8-18.1,28.9-22,46.6c-4.3,19.7-8.7,39.1-9.6,59.2
	c-1.6,33.5,5.6,68.4,26.9,95.9c3.5,4.6,7.5,8.9,12.3,12.4c5.9,4.3,13,7.1,20.3,8.9C685.6,864.2,702.4,858.6,718,848.8z"/>
<path class="st0" d="M398,642c-9,52,1,149-9,237c19.4-2.2,68.8-25.2,79.7-34.5c27.1-23.1,38-57.4,27.3-92.7
	C487.1,722.2,436,642,398,642z"/>
<g>
	<path d="M307.5,152.5c0.9,19.4-6,40.2-25,56.1c-12.4,10.4-23.6,22.6-36.9,31.8c-32.7,22.7-67.7,29-107.9,19.6
		c-43-10-69.6-37.2-90.7-72C21,144.8,42.2,62,86.3,37.5c13.4-7.4,31.2-9.7,46.8-9.5c27,0.5,54.2,3,80.7,7.8
		C271.1,46.3,307,90.4,307.5,152.5z M94.1,147.3c6.5,19.1,8.9,41.1,20.3,56.5c19.9,26.8,47.9,47,84,36.9
		c42-11.8,76.6-35.3,92.6-78.9c0.7-2,0.9-4.3,0.9-6.4c-0.7-46-25.1-94.8-80.8-102.1c-17.9-2.4-36.4-0.3-54.5-1.6
		c-17.4-1.3-29.3,6.1-37.6,20.2C105.3,94.5,96.4,118.7,94.1,147.3z"/>
	<path d="M422,99.8c12.1,23.9,20.9,41.4,30,59.3c20.5-14,9.6-44.6,39.8-57.4c-10.1,35.3-14.9,65.5-38.6,93.2
		c-11.5-18.7-21.2-34.5-34.6-56.4c-8.4,25.4-14.5,44-22.9,69.2c-20.8-32-30.5-61.3-40.8-90.2c-1-2.8,5.2-11.5,7.5-11.3
		c5.2,0.5,13.3,3.9,14.4,7.8c3.9,14.1,5.4,28.8,7.8,43.3c2.4,0.4,4.7,0.7,7.1,1.1C400.6,141,409.5,123.8,422,99.8z"/>
	<path d="M753.8,172.6c-14.8-25.7-3.1-53.8-7.9-80.6c19.2-5.4,27.4,4.5,36.1,14.3c10.8,12,21.6,24.2,33.7,34.7
		c6.6,5.7,16.1,8.2,29.9,14.8c-2.3-28.1-4-49.8-6.2-76.6c17,20.8,25.7,67.3,19.9,90.1c-40.4-1.4-42.3-2.4-90.2-48.3
		c-12.3,5.8-5.7,16.8-6.5,25.5c-0.8,8.1-0.2,16.3-0.2,24.4C759.6,171.4,756.7,172,753.8,172.6z"/>
	<path d="M564.4,197.1c-7.5-24.6-23.5-35.1-50.7-26.9c-4.3,7.6-9.4,16.4-15.2,26.6c-8.9-21.4,0.7-65.8,20.8-102.9
		c2,0.6,5.1,0.5,5.9,1.8c16.1,26.7,32.1,53.4,47.5,80.5C577.5,184.5,577.2,192.9,564.4,197.1z M523.6,152.5c3.6-3.9,7.1-6.3,6.8-7.9
		c-0.8-3.6-3.5-6.8-5.4-10.2c-2.6,2.4-7,4.6-7.4,7.4C517.2,144.5,520.8,147.9,523.6,152.5z"/>
	<path d="M597.7,187.9c-10.8-16.9,6.8-25.1,6.9-39.6c-8.6-9.5-18.6-20.4-28.6-31.4c13.5-7.3,13.5-7.3,42.2,13.1
		c9.8-10.7,19.6-21.5,31.1-34.1c7.6,16.3-3.3,22.8-8.4,31.2c-11.6,19.1-11.1,23.7,7.2,37.2c9.2,6.7,19.5,11.8,30.3,18.3
		c-20.6,7.5-20.6,7.5-56-15.8C614.9,173.2,606.8,180.2,597.7,187.9z"/>
	<path d="M1007,216.9c-39.7-19.7-16.7-55.9-23.1-86.8c-12.9-0.7-25.8-1.5-44.9-2.6c21.9-19,42.3-16.1,64.6-19.2
		C1009,144.9,983.7,181.9,1007,216.9z"/>
	<path d="M975.1,144.9c-23.9,24.4-44.2,28.7-60.2,16.7c-15-11.3-19.8-38.3-9.9-56.5c9.1-16.7,22.5-22.4,43.5-16
		c-6.4,4.4-10.8,8.3-15.9,10.9c-14.3,7.4-21,18.8-17.3,34.6c3,12.8,16,18.4,34.6,15.8C956.2,149.6,962.2,147.8,975.1,144.9z"/>
	<path d="M712.8,90.1c1.2,29.1,7,58.2,1.2,87C700.4,148.1,697.5,119,712.8,90.1z"/>
</g>
<g>
	<path d="M152.8,23.9c94.3-9.2,147.8,58.4,142.4,150.7c-1.8,30.3-10.1,59-36.4,76.5c-47.2,31.6-100,42.8-154.4,24.9
		c-18.9-6.2-37.2-23.5-49.1-40.4C28,196.7,17.5,111.9,65,59.6C90.5,31.5,120.2,19,152.8,23.9z M116,231.7
		c-8.6-27.3-20.7-53.1-23.9-80c-3.2-26.6,2.7-54.4,4.6-80.9C66.9,81.9,49.6,108.9,50.4,145C51.4,184.8,77.5,220.2,116,231.7z"/>
	<path d="M942,91.9c-15.9,9.5-24.5,13.7-32,19.4c-15.4,11.5-20,26.3-13.4,39.2c6.4,12.5,23,20.3,39.1,16.1
		c13.1-3.4,25.6-9.3,40.1-14.8c-7.3-21.8-29-0.1-37.2-14.1c8.4-17.1,13.9-18.8,53.8-15c0.2,32.1,0.4,64.5,0.6,96.3
		c-11.6-5-11.6-5-23.5-52.4c-6.8,3.2-13.2,6.1-19.5,9.1c-25.2,12.1-48.6,7.5-63.8-12.5c-12.8-16.8-8.6-41.2,11.4-60.8
		c6.8-6.7,15.2-12.1,23.7-16.4C924.3,84.8,930,88.5,942,91.9z"/>
	<path d="M820,150c9.2-24.1-0.8-49.4,16.4-68.7c7.1,34.6,0.2,68.7,2.7,102.9c-2.2,0.8-4.4,1.6-6.6,2.3c-19.9-18.3-39.7-36.7-60.7-56
		c-16.2,14-2,35.8-9.2,51.8c-16.2,1.5-13-9.4-13.2-17.2c-1.2-43,4.5-61.2,24.3-76.1C788.8,108.3,790.2,138.3,820,150z"/>
	<path d="M646.4,161.5c6.5-30.7,2.1-57.5,18.2-84c11.2,20.1-1.3,36,0.1,51.8c1.5,16.7,2.2,33.4,3.3,51.4
		c-41.5,3.5-52.6-35.7-76.9-54.1c-21.2,16.8,7.8,41.5-14.3,61.9c-14.5-38.5-5.3-70.5,5.8-109.7C607,108.5,617.7,139,646.4,161.5z"/>
	<path d="M399.5,182.7c-5.3-9.7-9.9-18-15.3-27.7c-8.7,8.7-14.3,14.2-24.8,24.6c-5.9-34.7-10.8-63.9-15.8-93.1
		c19.6,7.5,12.5,25.7,22.6,39.6c5.9-3.2,12.3-6.7,20.1-10.9c5.6,9.7,10.7,18.5,18.3,31.7c8.5-21.4,15.4-38.4,23.7-59.3
		c16.6,21.1-1.3,33.8-3,48C423.4,151.4,420.4,167.9,399.5,182.7z"/>
	<path d="M537.1,173.8c-15.9-5.9-30.9-16.4-44.5-15c-13.4,1.4-25.5,15-43.1,26.5c5.1-44.5,26.1-74.9,46.6-106.4
		c21,10.3,19.5,31.2,25.3,47.4C527.1,142.1,546.3,154.6,537.1,173.8z M477.8,140.5c14.1-0.3,21.1-0.4,31.9-0.6
		c-5-10.8-8.6-18.7-14.4-31.3C488.7,120.8,484.8,127.8,477.8,140.5z"/>
	<path d="M719.4,95.2c-1.8,31.8-3.4,58.2-5,86.1C697,160.2,698.1,124.6,719.4,95.2z"/>
</g>
<path d="M114.5,994.2c4.2,2.5,7.8,4.9,11.9,7.1c13.2,7.1,23.7,14.8,28.2,24.2c0.7,1.4,1.8,2.7,2,4.1c2.7,15.6-7.1,23.7-41.8,24.7
	c-21.2,0.6-40.4-1.4-56.5-9.1c-9.3-4.5-10.1-9.7-9-14.7c2.4-11.9,14.8-21.5,35.6-28.4c1.1-0.4,2.7-0.3,4.2-0.5
	c3.3,2.5-0.6,3.8-3.1,5.5c-5.9,4-12.2,7.9-16.9,12.1c-6.7,6.2-3.6,11.5,9.2,14.8c13,3.3,27,5.6,42.3,4.8c18-1,29.4-9.1,22.9-17
	c-3.3-4.1-7.9-8-13.5-11.5c-13.5-8.3-28-16.2-41.8-24.3c-8.8-5.2-15.1-11-13.7-17.9c0.6-2.9,2.5-6.2,6.3-8.3
	c15.1-8.3,51.3-7.3,65.2,1.3c8,5,8.3,10.1,1.5,14.8c-7.4,5.1-16.8,9.6-25.3,14.4C120,991.5,117.6,992.6,114.5,994.2z M129.5,977
	c-15-2.4-27.5-2.2-40.4-1.2c-0.8,6.7,9.5,8.9,16.2,12.3C113,984.6,120.2,981.2,129.5,977z"/>
<g>
	<path d="M355.1,956.3c-6.5,0.4-11.1,0.7-16.5,1.1c3.3-4.2,18.7-8.9,30.6-9.4c0.7,3,1.9,6.1,2,9.2c0.7,18.6,1,37.3,1.9,56
		c0.5,9.9,1.8,19.8,2.9,29.7c0.3,2.9,0.9,5.9,1.5,9.5c-12,0.5-23.8,1.1-35.7,1.5c-1.1,0-2.4-1-4.8-2c4.5-1.1,7.8-1.9,12.6-3.1
		C356,1018.4,354.6,987.6,355.1,956.3z"/>
	<path d="M428.8,956.4c-0.1-0.7-7.8-1-8.7-1.2c-0.7-0.2-1.8,0.8-2.3-0.4c-0.6-1.5,0.5-2.8,1.7-3c2.9-0.4,5.2-0.5,8.1-1.4
		c5.4-1.7,10.9-2.2,16.4-2.3c0.4,0,0.9,0,1.2,0.3c0.3,0.2,0.4,0.6,0.5,1c0.5,1.8,0.5,3.8,0.4,5.7c-0.6,19.4-0.3,38.6,0.6,58
		c0.5,9.9,1.8,19.8,2.9,29.7c0.3,2.9,0.9,5.9,1.5,9.5c-7.5,0.3-15.1,0.7-22.6,1c-3.6,0.2-7.3,0.3-10.9,0.4c-0.9,0-3,0.6-3.8-0.1
		c-0.3-0.3-1.7-3-1-3.3c3.1-1.2,7.1-0.9,10.3-1.7c3.2-15,4.5-30.4,5-45.8C428.9,987.9,430.3,971.2,428.8,956.4z"/>
</g>
<g>
	<path d="M602,987.1c-8.4-6.8-20.9-8-22.6-21.2c4,3.5,7.6,7.4,11.9,10.3c4.4,2.9,9.5,4.7,13.4,6.6c6.7-3.3,12.4-6.2,18.2-8.9
		c2-0.9,4.3-1.3,6.5-1.4c7.1-0.2,9.1,3,8,10.1c-1.5,10.3-2.9,20.6-3.1,31c-0.1,4.8,2.1,9.9,4.4,14.3c3.5,6.5,8.3,7.9,15.8,6
		c1.1-0.3,2.1-0.6,3.2-0.8c0.2,0,0.5,0.2,0.7,0.3c-2.3,6.3-8.4,8.9-14.2,5.4c-3.5-2.1-6.4-5.4-9.2-8.4c-1.7-1.8-2.7-4.2-4.3-6.7
		c-4,4.9-7.7,9.4-11.5,13.8c-5.2,5.9-11.8,6-18.6,3.9c-6.7-2-9.8-6.8-10.2-13.8c-0.6-10.1,1.3-19.6,5.6-28.7
		C598.1,995.2,599.9,991.4,602,987.1z M631.4,988.1c-8,0.5-14.7,1.3-21.4,1.3c-2.9,0-4.9,0.4-6.3,3c-5.6,10.5-10.2,21.3-9.3,33.7
		c0.6,8.6,4.2,11.6,13.2,11.6c5.4,0,9.9-2.2,13.1-6.6C630,1018.6,631.8,1004.1,631.4,988.1z M612.6,984.7c12.8,2.2,18,0.1,19-7.2
		C624,976.3,619.1,978.1,612.6,984.7z"/>
	<path d="M704.1,975.6c-15.8-4.7-19-7.7-18.9-18.2c1.4,1.3,2.6,2,3,3c2.8,6.5,7.7,9.3,14.6,9.7c2.4,0.1,4.8,1.5,8.7,2.8
		c1.7-0.6,5.2-1.7,8.5-3.2c5.3-2.4,9.2-1.2,12.1,3.8c0.4,0.7,1.2,1.1,1.7,1.4c4.6-1.7,8.9-3.9,13.4-4.7c9.2-1.7,16.4,4.4,17.1,13.8
		c0.1,1.7,0,3.4-0.1,5.1c-1.4,15.4-2.8,30.9-4.4,46.3c-0.3,3.1-0.1,6.8-4.6,9.8c0.7-6.6,1.4-12.1,1.9-17.6
		c1.2-12.6,2.4-25.2,3.5-37.8c0.1-1.7,0-3.4-0.3-5.1c-1-6.2-5.3-10.5-10.3-10.5c-7,0-12.7,3.8-13.7,10.1c-1.5,9.2-2.4,18.4-3.6,27.7
		c-0.3,2.6-0.9,5.1-1.4,7.7c-0.8,0-1.6,0-2.4,0c-0.2-2.2-0.6-4.4-0.4-6.6c0.7-7,2.1-14,2.3-21c0.1-4.9-0.9-10-2.1-14.8
		c-1-4-4.3-4.8-8.1-3.6c-6.6,2.1-11.6,5.9-12.8,13.2c-1.8,11.1-3.4,22.3-4.9,33.5c-1,7.8-1.6,15.7-2.6,23.5c-0.1,1.2-1.2,2.3-2.1,4
		c-2.7-2.5-2.1-5-1.8-7.4c2.3-19,4.7-38,7-57C703.8,980.8,703.9,978.4,704.1,975.6z"/>
	<path d="M769.4,1039.6c0.8-1.6,1.2-2.9,1.9-4.1c1.6-2.5,3.9-3.4,6.5-2c0.9,0.5,1.8,2.4,1.6,3.3c-0.7,2.8-2.4,5.2-5.9,4.5
		C772.2,1041.2,771.1,1040.4,769.4,1039.6z"/>
	<path d="M673.6,1034.6c4-0.9,7.2-0.7,7.8,3.7c0.1,1-2.4,3.3-3.7,3.3C673.9,1041.6,672.4,1039.1,673.6,1034.6z"/>
</g>
<path d="M206,1003.4c17.4,2.1,35.1,2.8,52.6,2c6.5-0.3,20.6,0.8,26.1-2.3c7.5-4.3,2.3-5.3-4.5-6.3c-10.2-1.5-22.1-2.1-32.4-2.3
	c-7.2-0.1-14.7,0.2-21.7,1.5C221.5,996.8,209.4,1003.8,206,1003.4z"/>
<path d="M886.3,991.7c10.1-6.1,18.7-11.4,27.1-16.4c1-0.1,1.3-0.2,1.7-0.2c26.9,0.4,25.1,0.9,25.4,9.2c0.4,11.3-0.6,22.7-0.8,34
	c0,2.8,0.8,5.6,1.3,9c-6.5,0.4-12.5,1.2-18.4,1.1c-8.8-0.1-11-1.1-10.8-4.1c0.6-6.2,1.6-12.4,1.9-18.6c0.3-7.2-0.1-14.3-0.3-21.5
	c0-0.7-1-1.5-2.1-2.9c-8.8,5.1-16.5,9.5-25.7,14.8c-4.2-2.9-7.2-5-10.1-7.1c-0.7,0-1.3,0.1-2,0.1c-0.3,2.1-0.9,4.1-0.8,6.2
	c0.8,8.6,1.7,17.3,2.8,25.9c0.4,3.2-1.1,3.7-10.5,2.9c-2.6-0.2-5.3-0.2-8.8-0.4c-0.5-4.6-1.4-9-1.5-13.4
	c-0.1-10.2,0.3-20.5,0.5-30.7c0-0.8-0.5-1.7,0.3-2.4c0.8-0.8,2.5-1.8,4.4-2c1.8-0.1,5.2,0.6,6.2,1.2c5,3.4,9.4,6.8,14,10.3
	C881.8,988.1,883.4,989.4,886.3,991.7z M863.8,1009c-0.6,0-1.2,0-1.9,0c0.3,0.7,0.6,1.4,0.9,2.1
	C863.2,1010.4,863.5,1009.7,863.8,1009z"/>
<path d="M984.5,994.7c-1.3-3.5-2.2-7.2-4-10.4c-1.9-3.2-4.3-6.4-7.2-8.4c-4.3-2.9-11.2-2.2-13.5,0.5c-3.3,3.9-1.6,8.4,0.5,11.7
	c3,4.7,7.3,8.7,11.2,12.7c3.1,3.2,7.1,5.7,9.6,9.2c7.8,11.1,2.8,24.7-10.4,27.6c-5.5,1.2-11.4,1-17,0.4c-6.1-0.7-8.6-4.2-9.4-10.4
	c-1.3-10,3.9-19.8,13-24.7c1.3-0.7,2.7-1.3,3.5-1.7c-2.2-6.6-5-12.4-6-18.4c-1.4-8.4,3.7-13.6,12.1-13.2c7,0.3,13.2,3,16.2,10
	c2,4.7,5.4,9.2,3.6,14.7C986,994.3,985.2,994.5,984.5,994.7z M968.7,1003.9c-3.7,1.2-6.5,1.9-9.1,3c-7.3,3.1-12.2,11.6-11.4,19.4
	c0.3,3.5,1.7,6.8,5.3,7c6,0.4,12.3,1,17.9-0.7c8.9-2.6,11.3-10.4,6.4-18.3C975.3,1010.4,971.6,1007.2,968.7,1003.9z"/>
<path d="M1026.8,1018.8c0,6.8,0.6,19.6-2.2,19.6c-2.9-3.3-2.4-4.9-2.6-7.6c-0.3-3.1-0.4-8-0.4-11.7c-5.4-0.5-9.4-0.8-14.4-1.3
	c-4-0.4-8-1-12-1.6c-2.1-0.3-3.4-1.5-3.3-4.7c0.3-6,0.5-12.1,0.2-18.1c-0.3-6.9,1.1-14-2.7-20.8c8.3,0.3,15.8,0.9,23.3,0.7
	c7.4-0.2,14.8-1.3,22.3-1.7c7.5-0.3,14.8-3.4,22.9-2.5c0,4.9-0.1,9.4,0,13.8c0.2,6.8,0.6,13.6,0.9,20.4c0,0.6,0.1,1.2,0.2,1.7
	c0.2,6.6-1.9,9.6-7.3,10.2c-7.4,0.8-14.8,1.6-22.2,2.4C1027.9,1018,1028.5,1018.5,1026.8,1018.8z"/>
</svg>
